<?xml version="1.0" encoding="UTF-8"?>
<svg width="600" height="400" viewBox="0 0 600 400" xmlns="http://www.w3.org/2000/svg">
  <defs>
    <linearGradient id="bgGradient" x1="0%" y1="0%" x2="100%" y2="100%">
      <stop offset="0%" stop-color="#20C997" stop-opacity="0.1"/>
      <stop offset="100%" stop-color="#20C997" stop-opacity="0.3"/>
    </linearGradient>
  </defs>
  <rect width="600" height="400" fill="url(#bgGradient)" rx="15" ry="15"/>
  <g fill="#20C997" transform="translate(180, 90) scale(2.2)">
    <!-- DevOps Icon -->
    <path d="M104 40c0 22.1-17.9 40-40 40S24 62.1 24 40 41.9 0 64 0s40 17.9 40 40zM64 88c26.5 0 48-21.5 48-48s-21.5-48-48-48-48 21.5-48 48 21.5 48 48 48z"/>
    <path d="M80 40c0 8.8-7.2 16-16 16s-16-7.2-16-16 7.2-16 16-16 16 7.2 16 16zM64 48c4.4 0 8-3.6 8-8s-3.6-8-8-8-8 3.6-8 8 3.6 8 8 8z"/>
    <path d="M119 89L97.8 67.8c-2.3 3.4-5.1 6.5-8.1 9.3l21.7 21.7c2 2 5.1 2 7.1 0 2-1.9 2-5.1.5-9.8zm-8.1 9.8c-3.5 0-7.1-1.3-9.8-4-2.7-2.7-4-6.2-4-9.8 0-3.5 1.3-7.1 4-9.8 2.7-2.7 6.2-4 9.8-4 3.5 0 7.1 1.3 9.8 4 5.4 5.4 5.4 14.2 0 19.6-2.7 2.7-6.2 4-9.8 4z"/>
    <path d="M16.7 120.3c1.9 1.9 5.1 1.9 7 0l22.8-22.8c-2.7-2.5-5.2-5.3-7.3-8.3L17 111.3c-2 2-2 5.1 0 7.1l-.3 1.9z"/>
  </g>
  <text x="300" y="300" fill="#20C997" font-family="'Space Grotesk', sans-serif" font-size="28" text-anchor="middle" font-weight="bold">DevOps Engineer</text>
  <text x="300" y="330" fill="#333333" font-family="'Space Grotesk', sans-serif" font-size="16" text-anchor="middle">CI/CD • Docker • Kubernetes • Terraform</text>
</svg>