<?xml version="1.0" encoding="UTF-8"?>
<svg width="600" height="400" viewBox="0 0 600 400" xmlns="http://www.w3.org/2000/svg">
  <defs>
    <linearGradient id="bgGradient" x1="0%" y1="0%" x2="100%" y2="100%">
      <stop offset="0%" stop-color="#A29BFE" stop-opacity="0.1"/>
      <stop offset="100%" stop-color="#A29BFE" stop-opacity="0.3"/>
    </linearGradient>
  </defs>
  <rect width="600" height="400" fill="url(#bgGradient)" rx="15" ry="15"/>
  <g fill="#A29BFE" transform="translate(180, 90) scale(2.0)">
    <!-- UI/UX Designer Icon -->
    <path d="M120 24c0-13.255-10.745-24-24-24H24C10.745 0 0 10.745 0 24v48c0 13.255 10.745 24 24 24h72c13.255 0 24-10.745 24-24V24zm-8 0v48c0 8.837-7.163 16-16 16H24c-8.837 0-16-7.163-16-16V24c0-8.837 7.163-16 16-16h72c8.837 0 16 7.163 16 16z"/>
    <path d="M80 56c0 4.4-3.6 8-8 8H28c-4.4 0-8-3.6-8-8V40c0-4.4 3.6-8 8-8h44c4.4 0 8 3.6 8 8v16z"/>
    <path d="M32 76h56v8H32zM32 12h28v8H32z"/>
  </g>
  <text x="300" y="300" fill="#A29BFE" font-family="'Space Grotesk', sans-serif" font-size="28" text-anchor="middle" font-weight="bold">UI/UX Designer</text>
  <text x="300" y="330" fill="#333333" font-family="'Space Grotesk', sans-serif" font-size="16" text-anchor="middle">Figma • User Research • Typography • Design Systems</text>
</svg>